# xmcd
#
# Track frame offsets:
#	150
#	34361
#	59407
#	81359
#	98393
#	115965
#	154867
#
# Disc length: 2605 seconds
#
# Revision: 0
# Processed by: cddbd v1.5.2PL0 Copyright (c) Steve Scherf et al.
# Submitted via: EZCDAudioConverter 2.1.7.1
#
DISCID=540a2b07
DTITLE=Jef Gilson - Gilson Et Malagasy 3/4
DYEAR=1900
DGENRE=
TTITLE0=Valiha Ny Dada
TTITLE1=Katramo
TTITLE2=Hommage À Rakotozafy
TTITLE3=Amore Ny Canal
TTITLE4=Del-Light
TTITLE5=Ô Ambalavoa 'City'
TTITLE6=Rotaka (Fais Peter)
EXTD=
EXTT0=
EXTT1=
EXTT2=
EXTT3=
EXTT4=
EXTT5=
EXTT6=
PLAYORDER=
